<svg width="16" height="16" viewBox="0 0 16 16" fill="none" xmlns="http://www.w3.org/2000/svg">
<path d="M7.595 11H8.495V7.4H7.595V11ZM7.99973 6.29C8.13991 6.29 8.2575 6.244 8.3525 6.152C8.4475 6.06 8.495 5.946 8.495 5.81C8.495 5.6655 8.44759 5.54438 8.35277 5.44663C8.25794 5.34888 8.14044 5.3 8.00027 5.3C7.86009 5.3 7.7425 5.34888 7.6475 5.44663C7.5525 5.54438 7.505 5.6655 7.505 5.81C7.505 5.946 7.55241 6.06 7.64723 6.152C7.74206 6.244 7.85956 6.29 7.99973 6.29ZM8.00399 14C7.17665 14 6.39915 13.8425 5.67149 13.5275C4.94383 13.2125 4.3075 12.7825 3.7625 12.2375C3.2175 11.6925 2.7875 11.0558 2.4725 10.3274C2.1575 9.59899 2 8.82069 2 7.9925C2 7.16431 2.1575 6.38602 2.4725 5.65762C2.7875 4.92921 3.2175 4.295 3.7625 3.755C4.3075 3.215 4.94421 2.7875 5.67262 2.4725C6.40102 2.1575 7.17931 2 8.0075 2C8.83569 2 9.61399 2.1575 10.3424 2.4725C11.0708 2.7875 11.705 3.215 12.245 3.755C12.785 4.295 13.2125 4.93 13.5275 5.66C13.8425 6.39 14 7.16867 14 7.99601C14 8.82335 13.8425 9.60085 13.5275 10.3285C13.2125 11.0562 12.785 11.6916 12.245 12.2347C11.705 12.7779 11.07 13.2079 10.34 13.5247C9.61 13.8416 8.83133 14 8.00399 14ZM8.0075 13.1C9.4225 13.1 10.625 12.6025 11.615 11.6075C12.605 10.6125 13.1 9.4075 13.1 7.9925C13.1 6.5775 12.6059 5.375 11.6178 4.385C10.6297 3.395 9.42375 2.9 8 2.9C6.59 2.9 5.3875 3.39406 4.3925 4.38218C3.3975 5.37031 2.9 6.57625 2.9 8C2.9 9.41 3.3975 10.6125 4.3925 11.6075C5.3875 12.6025 6.5925 13.1 8.0075 13.1Z" fill="#E9902B"/>
</svg>
